<svg xmlns="http://www.w3.org/2000/svg" width="264.805" height="45.555" viewBox="0 0 264.805 45.555"><defs><style>.a,.b{fill:none;stroke:#dc5456;}.a{stroke-linecap:round;}</style></defs><g transform="translate(0 0.705)"><path d="M33.9-35.6V0H29.8V-16.35H8.45V0H4.4V-35.6H8.45v15.8H29.8V-35.6ZM52.6.35a12.027,12.027,0,0,1-6.25-1.6A10.728,10.728,0,0,1,42.175-5.8,15.247,15.247,0,0,1,40.7-12.7a15.247,15.247,0,0,1,1.475-6.9,10.728,10.728,0,0,1,4.175-4.55,12.027,12.027,0,0,1,6.25-1.6,12.027,12.027,0,0,1,6.25,1.6,10.728,10.728,0,0,1,4.175,4.55A15.247,15.247,0,0,1,64.5-12.7a15.247,15.247,0,0,1-1.475,6.9A10.728,10.728,0,0,1,58.85-1.25,12.027,12.027,0,0,1,52.6.35ZM52.6-3a6.964,6.964,0,0,0,5.75-2.475q2-2.475,2-7.225,0-4.6-2.05-7.125a6.935,6.935,0,0,0-5.7-2.525,6.99,6.99,0,0,0-5.75,2.525Q44.8-17.3,44.8-12.7q0,4.75,2.025,7.225A7.036,7.036,0,0,0,52.6-3ZM70.8-36.8h4.05V0H70.8ZM82.7-25.15h4.05V0H82.7ZM87.25-35.8v4.6H82.3v-4.6Zm29.5-1V0h-4V-4.55a7.971,7.971,0,0,1-3.325,3.625A10.226,10.226,0,0,1,104.25.35,10.407,10.407,0,0,1,98.425-1.3,10.936,10.936,0,0,1,94.5-5.925,15.977,15.977,0,0,1,93.1-12.8a15.888,15.888,0,0,1,1.375-6.825A10.434,10.434,0,0,1,98.4-24.15a10.774,10.774,0,0,1,5.85-1.6,10.088,10.088,0,0,1,5.15,1.275,8.06,8.06,0,0,1,3.3,3.575V-36.8ZM105.05-3a6.848,6.848,0,0,0,5.7-2.525q2-2.525,2-7.175,0-4.6-2-7.125a6.848,6.848,0,0,0-5.7-2.525,7.093,7.093,0,0,0-5.775,2.5Q97.2-17.35,97.2-12.8q0,4.65,2.075,7.225A7,7,0,0,0,105.05-3Zm41.7-22.15V0h-4V-4.55a7.971,7.971,0,0,1-3.325,3.625A10.226,10.226,0,0,1,134.25.35a10.74,10.74,0,0,1-5.875-1.6,10.49,10.49,0,0,1-3.9-4.525A15.888,15.888,0,0,1,123.1-12.6a15.977,15.977,0,0,1,1.4-6.875,10.936,10.936,0,0,1,3.925-4.625,10.407,10.407,0,0,1,5.825-1.65,9.935,9.935,0,0,1,5.15,1.3,8.457,8.457,0,0,1,3.35,3.65v-4.35ZM135.05-3a6.848,6.848,0,0,0,5.7-2.525q2-2.525,2-7.175t-2-7.15a6.877,6.877,0,0,0-5.7-2.5,7,7,0,0,0-5.775,2.575A11.146,11.146,0,0,0,127.2-12.6q0,4.6,2.05,7.1A7.077,7.077,0,0,0,135.05-3Zm39.4-.2V0H153.2V-2.8l15.85-19.15h-15.3v-3.2H173.9v2.95l-15.7,19ZM201-12.7H182.55q.05,4.8,2.225,7.25A8.013,8.013,0,0,0,191.1-3a12.71,12.71,0,0,0,8.1-2.95L200.55-3a11.722,11.722,0,0,1-4.225,2.45,15.878,15.878,0,0,1-5.275.9q-5.9,0-9.25-3.475t-3.35-9.525a14.957,14.957,0,0,1,1.5-6.825,11.189,11.189,0,0,1,4.2-4.625,11.556,11.556,0,0,1,6.15-1.65,9.861,9.861,0,0,1,7.85,3.275Q201-19.2,201-13.45Zm-10.65-9.9a7.085,7.085,0,0,0-5.125,1.9,9.178,9.178,0,0,0-2.525,5.35h14.65a8.6,8.6,0,0,0-2.075-5.4A6.5,6.5,0,0,0,190.35-22.6Z" transform="translate(-4.4 44.5)"/><g transform="translate(-1525.4 -92.5)"><line class="a" y2="27.5" transform="translate(1753.214 109)"/><line class="a" x1="0.5" y2="27" transform="translate(1781 109.5)"/><line class="b" x2="28" transform="translate(1753.5 136.5)"/><line class="a" y1="19" x2="23" transform="translate(1744.5 92.5)"/><line class="a" x2="22" y2="19" transform="translate(1767.5 92.5)"/></g></g></svg>